<svg xmlns="http://www.w3.org/2000/svg" viewBox="0 0 1200 1000" width="1200" height="1000" role="img" aria-label="Purple AI assistant robot mascot">
  <!-- ground shadow -->
  <ellipse cx="610" cy="842" rx="285" ry="70" fill="#7B6EF6" opacity="0.18"/>
  <ellipse cx="610" cy="812" rx="150" ry="27" fill="none" stroke="#C7BFFF" stroke-width="8" opacity="0.65"/>

  <!-- antennae -->
  <g opacity="0.95">
    <path d="M610 158V82" stroke="#8F82FF" stroke-width="8" stroke-linecap="round"/>
    <path d="M430 268l-20-74" stroke="#8F82FF" stroke-width="8" stroke-linecap="round"/>
    <path d="M800 270l24-72" stroke="#8F82FF" stroke-width="8" stroke-linecap="round"/>
    <circle cx="610" cy="70" r="21" fill="#C9BCFF"/>
    <circle cx="406" cy="182" r="18" fill="#C9BCFF"/>
    <circle cx="830" cy="186" r="18" fill="#C9BCFF"/>
  </g>

  <!-- ears -->
  <ellipse cx="374" cy="318" rx="57" ry="92" fill="#8678F2"/>
  <ellipse cx="371" cy="318" rx="34" ry="59" fill="#15182E"/>
  <ellipse cx="371" cy="318" rx="25" ry="47" fill="none" stroke="#C9BCFF" stroke-width="9"/>
  <ellipse cx="356" cy="262" rx="14" ry="19" fill="#FFFFFF" opacity="0.40"/>
  <ellipse cx="846" cy="320" rx="50" ry="88" fill="#7163E8"/>
  <ellipse cx="850" cy="320" rx="27" ry="55" fill="#15182E"/>
  <ellipse cx="850" cy="320" rx="18" ry="44" fill="none" stroke="#B9A9FF" stroke-width="8"/>

  <!-- head -->
  <path d="M410 188C437 145 486 124 612 124c143 0 234 25 261 80 17 35 17 153-3 192-25 49-82 62-250 59-164-3-220-21-240-74-23-60-13-146 30-193Z" fill="#7B6EF6"/>
  <path d="M412 190C464 139 604 123 744 142c68 10 109 32 128 65-65-43-170-51-293-43-86 6-144 15-167 26Z" fill="#FFFFFF" opacity="0.30"/>
  <path d="M386 362c38 90 237 102 420 77-31 22-88 29-186 27-164-3-220-21-240-74-5-13-8-23-9-34 5 2 10 3 15 4Z" fill="#3B2DA0" opacity="0.30"/>

  <!-- face panel -->
  <path d="M455 238C474 207 516 198 617 200c112 2 178 13 200 46 15 23 16 104 1 132-22 41-71 47-201 45-126-3-169-15-185-52-16-39-8-104 23-133Z" fill="#0E1224" stroke="#E7E3FF" stroke-width="8"/>
  <path d="M692 218c58 5 102 18 124 48 15 21 17 64 6 98-14-43-50-72-110-92 22-17 21-37-20-54Z" fill="#FFFFFF" opacity="0.10"/>

  <!-- eyes + mouth -->
  <circle cx="558" cy="316" r="38" fill="#2B1457"/>
  <circle cx="558" cy="316" r="27" fill="none" stroke="#CDBFFF" stroke-width="13"/>
  <circle cx="720" cy="318" r="38" fill="#2B1457"/>
  <circle cx="720" cy="318" r="27" fill="none" stroke="#CDBFFF" stroke-width="13"/>
  <rect x="615" y="363" width="57" height="17" rx="9" fill="#CDBFFF"/>

  <!-- torso -->
  <path d="M420 502C454 450 514 434 624 444c111 10 180 41 196 92 18 59-5 156-45 199-31 34-81 49-169 47-94-2-150-20-181-61-38-52-38-167-5-219Z" fill="#7466EE"/>
  <path d="M425 498c58-40 230-48 329 11-61-25-246-27-329-11Z" fill="#FFFFFF" opacity="0.26"/>
  <path d="M435 714c66 45 250 51 340 14-34 36-84 54-169 52-90-2-143-20-171-66Z" fill="#36278F" opacity="0.30"/>

  <!-- arms -->
  <path d="M381 505c44 0 62 41 42 91-19 47-61 83-101 75-39-8-48-54-19-102 20-34 48-64 78-64Z" fill="#7163E8"/>
  <path d="M351 530c27-10 46-4 52 16-26 9-55 49-74 88-18-17-5-79 22-104Z" fill="#FFFFFF" opacity="0.30"/>
  <path d="M826 505c39 4 77 41 93 90 14 43-7 75-45 70-38-5-73-38-91-80-20-45 3-83 43-80Z" fill="#6A5CE2"/>
  <path d="M856 525c30 15 48 47 52 79-24-32-58-50-91-55 5-19 19-31 39-24Z" fill="#FFFFFF" opacity="0.26"/>

  <!-- chest panel -->
  <rect x="497" y="530" width="251" height="155" rx="42" fill="#0E1224" stroke="#E7E3FF" stroke-width="8"/>
  <rect x="515" y="548" width="215" height="119" rx="30" fill="none" stroke="#A79EFF" stroke-width="4" opacity="0.5"/>

  <!-- brain / neural icon -->
  <g fill="none" stroke="#CDBFFF" stroke-width="6" stroke-linecap="round" stroke-linejoin="round">
    <path d="M575 601c-18-24 5-50 31-35 11-25 48-21 54 4 27-5 47 17 35 42 20 16 6 50-22 48-12 23-47 24-61 3-23 14-54-7-44-33-18-4-24-19-18-29 5-9 14-12 25 0Z"/>
    <path d="M604 566c-12 24 10 31 31 29M653 572c-12 17-4 34 17 37M587 621c27-15 56-9 87 22M618 604c-7 22 2 40 26 56"/>
  </g>
  <g fill="#EDE8FF">
    <circle cx="545" cy="604" r="4"/><circle cx="699" cy="589" r="4"/><circle cx="562" cy="642" r="4"/><circle cx="682" cy="650" r="4"/>
    <circle cx="573" cy="707" r="8"/><circle cx="621" cy="707" r="8"/><circle cx="672" cy="707" r="8"/>
  </g>

  <!-- lower cap -->
  <path d="M500 766c56 24 159 25 216 2-11 29-49 46-105 47-57 0-97-17-111-49Z" fill="#36288F" opacity="0.6"/>

  <!-- highlights -->
  <path d="M735 151c65 12 99 32 115 67" stroke="#FFFFFF" stroke-width="13" stroke-linecap="round" opacity="0.45" fill="none"/>
  <path d="M805 520c33 16 56 43 68 80" stroke="#FFFFFF" stroke-width="12" stroke-linecap="round" opacity="0.40" fill="none"/>
</svg>
