<svg width="100%" viewBox="0 0 680 620" role="img" xmlns="http://www.w3.org/2000/svg">
<title>Vivordo robot</title>
<ellipse cx="340" cy="400" rx="160" ry="40" fill="#7B6EF6" opacity="0.15"/>
<line x1="340" y1="100" x2="340" y2="130" stroke="#7B6EF6" stroke-width="4" stroke-linecap="round"/>
<circle cx="340" cy="92" r="12" fill="#7B6EF6"/>
<circle cx="340" cy="92" r="7" fill="#A99DF8"/>
<rect x="255" y="128" width="170" height="130" rx="22" fill="#7B6EF6"/>
<rect x="263" y="136" width="154" height="114" rx="16" fill="#5B4ED6"/>
<rect x="280" y="158" width="48" height="36" rx="10" fill="#EAE6FE"/>
<rect x="290" y="164" width="28" height="24" rx="6" fill="#1C1060"/>
<circle cx="304" cy="176" r="7" fill="#7B6EF6"/>
<circle cx="308" cy="172" r="3" fill="#EAE6FE"/>
<rect x="352" y="158" width="48" height="36" rx="10" fill="#EAE6FE"/>
<rect x="362" y="164" width="28" height="24" rx="6" fill="#1C1060"/>
<circle cx="376" cy="176" r="7" fill="#7B6EF6"/>
<circle cx="380" cy="172" r="3" fill="#EAE6FE"/>
<rect x="298" y="210" width="84" height="22" rx="11" fill="#EAE6FE"/>
<rect x="308" y="215" width="16" height="12" rx="4" fill="#7B6EF6"/>
<rect x="332" y="215" width="16" height="12" rx="4" fill="#7B6EF6"/>
<rect x="356" y="215" width="16" height="12" rx="4" fill="#7B6EF6"/>
<rect x="228" y="155" width="28" height="42" rx="8" fill="#5B4ED6"/>
<circle cx="242" cy="176" r="8" fill="#7B6EF6"/>
<circle cx="242" cy="176" r="4" fill="#A99DF8"/>
<rect x="424" y="155" width="28" height="42" rx="8" fill="#5B4ED6"/>
<circle cx="438" cy="176" r="8" fill="#7B6EF6"/>
<circle cx="438" cy="176" r="4" fill="#A99DF8"/>
<rect x="318" y="258" width="44" height="20" rx="6" fill="#5B4ED6"/>
<rect x="326" y="262" width="28" height="12" rx="4" fill="#7B6EF6"/>
<rect x="220" y="278" width="240" height="170" rx="24" fill="#7B6EF6"/>
<rect x="232" y="290" width="216" height="146" rx="16" fill="#5B4ED6"/>
<rect x="268" y="308" width="144" height="90" rx="12" fill="#3D2FB0"/>
<circle cx="340" cy="338" r="24" fill="none" stroke="#A99DF8" stroke-width="2.5"/>
<path d="M325 330 Q330 322 340 322 Q350 322 355 330" fill="none" stroke="#A99DF8" stroke-width="2"/>
<path d="M316 340 Q318 348 325 352 M364 340 Q362 348 355 352" fill="none" stroke="#A99DF8" stroke-width="2"/>
<path d="M330 322 Q326 314 320 318" fill="none" stroke="#A99DF8" stroke-width="2"/>
<path d="M350 322 Q354 314 360 318" fill="none" stroke="#A99DF8" stroke-width="2"/>
<circle cx="340" cy="338" r="4" fill="#A99DF8"/>
<circle cx="292" cy="372" r="8" fill="#7B6EF6"/>
<circle cx="292" cy="372" r="4" fill="#A99DF8"/>
<circle cx="316" cy="380" r="5" fill="#7B6EF6"/>
<circle cx="364" cy="380" r="5" fill="#7B6EF6"/>
<circle cx="388" cy="372" r="8" fill="#7B6EF6"/>
<circle cx="388" cy="372" r="4" fill="#EAE6FE"/>
<rect x="164" y="285" width="58" height="130" rx="22" fill="#7B6EF6"/>
<rect x="172" y="293" width="42" height="114" rx="16" fill="#5B4ED6"/>
<rect x="160" y="400" width="66" height="38" rx="16" fill="#7B6EF6"/>
<rect x="172" y="408" width="14" height="22" rx="7" fill="#5B4ED6"/>
<rect x="190" y="408" width="14" height="22" rx="7" fill="#5B4ED6"/>
<rect x="458" y="285" width="58" height="130" rx="22" fill="#7B6EF6"/>
<rect x="466" y="293" width="42" height="114" rx="16" fill="#5B4ED6"/>
<rect x="454" y="400" width="66" height="38" rx="16" fill="#7B6EF6"/>
<rect x="466" y="408" width="14" height="22" rx="7" fill="#5B4ED6"/>
<rect x="484" y="408" width="14" height="22" rx="7" fill="#5B4ED6"/>
<rect x="290" y="448" width="100" height="22" rx="8" fill="#5B4ED6"/>
<rect x="262" y="468" width="72" height="110" rx="20" fill="#7B6EF6"/>
<rect x="272" y="478" width="52" height="90" rx="14" fill="#5B4ED6"/>
<rect x="250" y="562" width="90" height="32" rx="14" fill="#7B6EF6"/>
<rect x="346" y="468" width="72" height="110" rx="20" fill="#7B6EF6"/>
<rect x="356" y="478" width="52" height="90" rx="14" fill="#5B4ED6"/>
<rect x="340" y="562" width="90" height="32" rx="14" fill="#7B6EF6"/>
</svg>
